<svg xmlns="http://www.w3.org/2000/svg" width="343" height="381" viewBox="0 0 343 381">
  <g id="그룹_462" data-name="그룹 462" transform="translate(-469 -243)">
    <g id="사각형_72" data-name="사각형 72" transform="translate(592 243)" fill="#fffae9" stroke="#000" stroke-width="0.5">
      <rect width="40" height="32" stroke="none"/>
      <rect x="0.25" y="0.25" width="39.5" height="31.5" fill="none"/>
    </g>
    <g id="사각형_82" data-name="사각형 82" transform="translate(649 243)" fill="#fffdfa" stroke="#000" stroke-width="0.5">
      <rect width="39" height="32" stroke="none"/>
      <rect x="0.25" y="0.25" width="38.5" height="31.5" fill="none"/>
    </g>
    <g id="사각형_70" data-name="사각형 70" transform="translate(592 275)" fill="#fffae9" stroke="#000" stroke-width="0.5">
      <rect width="40" height="30" stroke="none"/>
      <rect x="0.25" y="0.25" width="39.5" height="29.5" fill="none"/>
    </g>
    <g id="사각형_80" data-name="사각형 80" transform="translate(649 275)" fill="#fffdfa" stroke="#000" stroke-width="0.5">
      <rect width="39" height="30" stroke="none"/>
      <rect x="0.25" y="0.25" width="38.5" height="29.5" fill="none"/>
    </g>
    <g id="사각형_71" data-name="사각형 71" transform="translate(592 305)" fill="#fffae9" stroke="#000" stroke-width="0.5">
      <rect width="40" height="32" stroke="none"/>
      <rect x="0.25" y="0.25" width="39.5" height="31.5" fill="none"/>
    </g>
    <g id="사각형_81" data-name="사각형 81" transform="translate(649 305)" fill="#fffdfa" stroke="#000" stroke-width="0.5">
      <rect width="39" height="32" stroke="none"/>
      <rect x="0.25" y="0.25" width="38.5" height="31.5" fill="none"/>
    </g>
    <g id="사각형_63" data-name="사각형 63" transform="translate(592 337)" fill="#fffae9" stroke="#000" stroke-width="0.5">
      <rect width="40" height="33" stroke="none"/>
      <rect x="0.25" y="0.25" width="39.5" height="32.5" fill="none"/>
    </g>
    <g id="사각형_73" data-name="사각형 73" transform="translate(649 337)" fill="#fffdfa" stroke="#000" stroke-width="0.5">
      <rect width="39" height="33" stroke="none"/>
      <rect x="0.25" y="0.25" width="38.5" height="32.5" fill="none"/>
    </g>
    <g id="사각형_64" data-name="사각형 64" transform="translate(592 370)" stroke="#000" stroke-width="0.5">
      <rect width="40" height="31" stroke="none"/>
      <rect x="0.25" y="0.25" width="39.5" height="30.5" fill="none"/>
    </g>
    <g id="사각형_74" data-name="사각형 74" transform="translate(649 370)" stroke="#000" stroke-width="0.5">
      <rect width="39" height="31" stroke="none"/>
      <rect x="0.25" y="0.25" width="38.5" height="30.5" fill="none"/>
    </g>
    <g id="사각형_65" data-name="사각형 65" transform="translate(592 401)" fill="#fffae9" stroke="#000" stroke-width="0.5">
      <rect width="40" height="32" stroke="none"/>
      <rect x="0.25" y="0.25" width="39.5" height="31.5" fill="none"/>
    </g>
    <g id="사각형_75" data-name="사각형 75" transform="translate(649 401)" fill="#fffdfa" stroke="#000" stroke-width="0.5">
      <rect width="39" height="32" stroke="none"/>
      <rect x="0.25" y="0.25" width="38.5" height="31.5" fill="none"/>
    </g>
    <g id="사각형_66" data-name="사각형 66" transform="translate(592 433)" fill="#fffae9" stroke="#000" stroke-width="0.5">
      <rect width="40" height="33" stroke="none"/>
      <rect x="0.25" y="0.25" width="39.5" height="32.5" fill="none"/>
    </g>
    <g id="사각형_76" data-name="사각형 76" transform="translate(649 433)" fill="#fffdfa" stroke="#000" stroke-width="0.5">
      <rect width="39" height="33" stroke="none"/>
      <rect x="0.25" y="0.25" width="38.5" height="32.5" fill="none"/>
    </g>
    <g id="사각형_67" data-name="사각형 67" transform="translate(592 466)" fill="#fffae9" stroke="#000" stroke-width="0.5">
      <rect width="40" height="31" stroke="none"/>
      <rect x="0.25" y="0.25" width="39.5" height="30.5" fill="none"/>
    </g>
    <g id="사각형_77" data-name="사각형 77" transform="translate(649 466)" fill="#fffdfa" stroke="#000" stroke-width="0.5">
      <rect width="39" height="31" stroke="none"/>
      <rect x="0.25" y="0.25" width="38.5" height="30.5" fill="none"/>
    </g>
    <g id="사각형_68" data-name="사각형 68" transform="translate(592 497)" fill="#fffae9" stroke="#000" stroke-width="0.5">
      <rect width="40" height="32" stroke="none"/>
      <rect x="0.25" y="0.25" width="39.5" height="31.5" fill="none"/>
    </g>
    <g id="사각형_78" data-name="사각형 78" transform="translate(649 497)" fill="#fffdfa" stroke="#000" stroke-width="0.5">
      <rect width="39" height="32" stroke="none"/>
      <rect x="0.25" y="0.25" width="38.5" height="31.5" fill="none"/>
    </g>
    <g id="사각형_83" data-name="사각형 83" transform="translate(624 529) rotate(90)" fill="#fffdfa" stroke="#000" stroke-width="0.5">
      <rect width="40" height="32" stroke="none"/>
      <rect x="0.25" y="0.25" width="39.5" height="31.5" fill="none"/>
    </g>
    <g id="사각형_83-2" data-name="사각형 83" transform="translate(656 529) rotate(90)" fill="#fffdfa" stroke="#000" stroke-width="0.5">
      <rect width="40" height="32" stroke="none"/>
      <rect x="0.25" y="0.25" width="39.5" height="31.5" fill="none"/>
    </g>
    <g id="사각형_83-3" data-name="사각형 83" transform="translate(688 529) rotate(90)" fill="#fffdfa" stroke="#000" stroke-width="0.5">
      <rect width="40" height="32" stroke="none"/>
      <rect x="0.25" y="0.25" width="39.5" height="31.5" fill="none"/>
    </g>
    <g id="사각형_61" data-name="사각형 61" transform="translate(469 243)" fill="#e3f3fd" stroke="#000" stroke-width="0.5">
      <rect width="39" height="31" stroke="none"/>
      <rect x="0.25" y="0.25" width="38.5" height="30.5" fill="none"/>
    </g>
    <g id="사각형_61-2" data-name="사각형 61" transform="translate(469 274)" fill="#e3f3fd" stroke="#000" stroke-width="0.5">
      <rect width="39" height="31" stroke="none"/>
      <rect x="0.25" y="0.25" width="38.5" height="30.5" fill="none"/>
    </g>
    <g id="사각형_61-3" data-name="사각형 61" transform="translate(469 305)" fill="#e3f3fd" stroke="#000" stroke-width="0.5">
      <rect width="39" height="33" stroke="none"/>
      <rect x="0.25" y="0.25" width="38.5" height="32.5" fill="none"/>
    </g>
    <g id="사각형_61-4" data-name="사각형 61" transform="translate(469 338)" fill="#e3f3fd" stroke="#000" stroke-width="0.5">
      <rect width="39" height="32" stroke="none"/>
      <rect x="0.25" y="0.25" width="38.5" height="31.5" fill="none"/>
    </g>
    <g id="사각형_61-5" data-name="사각형 61" transform="translate(469 370)" fill="#e3f3fd" stroke="#000" stroke-width="0.5">
      <rect width="39" height="31" stroke="none"/>
      <rect x="0.25" y="0.25" width="38.5" height="30.5" fill="none"/>
    </g>
    <g id="사각형_61-6" data-name="사각형 61" transform="translate(469 401)" stroke="#000" stroke-width="0.5">
      <rect width="39" height="33" stroke="none"/>
      <rect x="0.25" y="0.25" width="38.5" height="32.5" fill="none"/>
    </g>
    <g id="사각형_61-7" data-name="사각형 61" transform="translate(469 434)" fill="#e3f3fd" stroke="#000" stroke-width="0.5">
      <rect width="39" height="32" stroke="none"/>
      <rect x="0.25" y="0.25" width="38.5" height="31.5" fill="none"/>
    </g>
    <g id="사각형_61-8" data-name="사각형 61" transform="translate(469 466)" fill="#e3f3fd" stroke="#000" stroke-width="0.5">
      <rect width="39" height="31" stroke="none"/>
      <rect x="0.25" y="0.25" width="38.5" height="30.5" fill="none"/>
    </g>
    <g id="사각형_61-9" data-name="사각형 61" transform="translate(469 497)" fill="#e3f3fd" stroke="#000" stroke-width="0.5">
      <rect width="39" height="33" stroke="none"/>
      <rect x="0.25" y="0.25" width="38.5" height="32.5" fill="none"/>
    </g>
    <g id="사각형_61-10" data-name="사각형 61" transform="translate(469 530)" fill="#e3f3fd" stroke="#000" stroke-width="0.5">
      <rect width="39" height="32" stroke="none"/>
      <rect x="0.25" y="0.25" width="38.5" height="31.5" fill="none"/>
    </g>
    <g id="사각형_61-11" data-name="사각형 61" transform="translate(469 562)" fill="#e3f3fd" stroke="#000" stroke-width="0.5">
      <rect width="39" height="30" stroke="none"/>
      <rect x="0.25" y="0.25" width="38.5" height="29.5" fill="none"/>
    </g>
    <g id="사각형_62" data-name="사각형 62" transform="translate(508 592)" fill="#e3f3fd" stroke="#000" stroke-width="0.5">
      <rect width="40" height="32" stroke="none"/>
      <rect x="0.25" y="0.25" width="39.5" height="31.5" fill="none"/>
    </g>
    <text id="A" transform="translate(485 422)" fill="#fff" font-size="13" font-family="Pretendard-Light, Pretendard" font-weight="300" letter-spacing="-0.02em"><tspan x="0" y="0">A</tspan></text>
    <text id="B" transform="translate(608 390)" fill="#fff" font-size="13" font-family="Pretendard-Light, Pretendard" font-weight="300" letter-spacing="-0.02em"><tspan x="0" y="0">B</tspan></text>
    <text id="C" transform="translate(665 390)" fill="#fff" font-size="13" font-family="Pretendard-Light, Pretendard" font-weight="300" letter-spacing="-0.02em"><tspan x="0" y="0">C</tspan></text>
    <g id="사각형_93" data-name="사각형 93" transform="translate(772 243)" fill="#feebcc" stroke="#000" stroke-width="0.5">
      <rect width="40" height="31" stroke="none"/>
      <rect x="0.25" y="0.25" width="39.5" height="30.5" fill="none"/>
    </g>
    <g id="사각형_92" data-name="사각형 92" transform="translate(772 274)" fill="#feebcc" stroke="#000" stroke-width="0.5">
      <rect width="40" height="31" stroke="none"/>
      <rect x="0.25" y="0.25" width="39.5" height="30.5" fill="none"/>
    </g>
    <g id="사각형_91" data-name="사각형 91" transform="translate(772 305)" fill="#feebcc" stroke="#000" stroke-width="0.5">
      <rect width="40" height="33" stroke="none"/>
      <rect x="0.25" y="0.25" width="39.5" height="32.5" fill="none"/>
    </g>
    <g id="사각형_90" data-name="사각형 90" transform="translate(772 338)" fill="#feebcc" stroke="#000" stroke-width="0.5">
      <rect width="40" height="32" stroke="none"/>
      <rect x="0.25" y="0.25" width="39.5" height="31.5" fill="none"/>
    </g>
    <g id="사각형_89" data-name="사각형 89" transform="translate(772 370)" fill="#feebcc" stroke="#000" stroke-width="0.5">
      <rect width="40" height="31" stroke="none"/>
      <rect x="0.25" y="0.25" width="39.5" height="30.5" fill="none"/>
    </g>
    <g id="사각형_88" data-name="사각형 88" transform="translate(772 401)" stroke="#000" stroke-width="0.5">
      <rect width="40" height="33" stroke="none"/>
      <rect x="0.25" y="0.25" width="39.5" height="32.5" fill="none"/>
    </g>
    <g id="사각형_87" data-name="사각형 87" transform="translate(772 434)" fill="#feebcc" stroke="#000" stroke-width="0.5">
      <rect width="40" height="32" stroke="none"/>
      <rect x="0.25" y="0.25" width="39.5" height="31.5" fill="none"/>
    </g>
    <g id="사각형_86" data-name="사각형 86" transform="translate(772 466)" fill="#feebcc" stroke="#000" stroke-width="0.5">
      <rect width="40" height="31" stroke="none"/>
      <rect x="0.25" y="0.25" width="39.5" height="30.5" fill="none"/>
    </g>
    <g id="사각형_84" data-name="사각형 84" transform="translate(772 497)" fill="#feebcc" stroke="#000" stroke-width="0.5">
      <rect width="40" height="33" stroke="none"/>
      <rect x="0.25" y="0.25" width="39.5" height="32.5" fill="none"/>
    </g>
    <g id="사각형_85" data-name="사각형 85" transform="translate(772 530)" fill="#feebcc" stroke="#000" stroke-width="0.5">
      <rect width="40" height="32" stroke="none"/>
      <rect x="0.25" y="0.25" width="39.5" height="31.5" fill="none"/>
    </g>
    <text id="D" transform="translate(788 422)" fill="#fff" font-size="13" font-family="Pretendard-Light, Pretendard" font-weight="300" letter-spacing="-0.02em"><tspan x="0" y="0">D</tspan></text>
    <path id="패스_101" data-name="패스 101" d="M0,0H39V31H0Z" transform="translate(469 466)" fill="#6a6a6a" opacity="0.4"/>
  </g>
</svg>
